#!OML:ASF H:\ManfredETheater\Project 1\Capture day 1\Session 1\subject.ASF
:FULLY-SPECIFIED
:DEGREES
183
root -18.5412 15.1291 38.3765 -9.28349 -31.3541 -6.83528
lowerback 16.2924 -1.69252 2.10569
upperback 2.5421 -1.67431 3.72632
thorax -6.36129 -0.856577 3.14101
lowerneck -17.1438 -3.95271 -4.70467
upperneck 14.071 -4.51523 1.73
head 7.27922 -2.26015 0.820728
rclavicle -9.26368e-014 -1.70955e-014
rhumerus -54.003 3.41439 -82.8386
rradius 92.5984
rwrist -10.2398
rhand -24.2848 11.0425
rfingers 7.12502
rthumb 2.20231 -18.9259
lclavicle -9.26368e-014 -1.70955e-014
lhumerus -46.759 -7.31691 98.8426
lradius 102.285
lwrist 8.27604
lhand -23.1822 -10.6337
lfingers 7.12502
lthumb 3.26715 19.321
rfemur -31.08 -3.30788 24.8581
rtibia 60.3573
rfoot -9.65309 -8.03234
rtoes -19.0627
lfemur -31.9907 -1.00436 -13.7047
ltibia 96.3021
lfoot -12.4468 -10.2636
ltoes 1.18635
184
root -18.7689 15.1123 38.6342 -9.07256 -30.8517 -7.25087
lowerback 16.2252 -1.7289 2.08517
upperback 2.4826 -1.71592 3.87715
thorax -6.38162 -0.874737 3.32269
lowerneck -16.9644 -3.99726 -4.65545
upperneck 14.2272 -4.6085 1.77172
head 7.30278 -2.30051 0.817556
rclavicle 2.29379e-014 1.19271e-015
rhumerus -52.1434 4.00838 -82.6873
rradius 91.2775
rwrist -9.93214
rhand -24.5654 10.7692
rfingers 7.12502
rthumb 1.93129 -19.2018
lclavicle 2.29379e-014 1.19271e-015
lhumerus -46.5875 -6.30138 98.4995
lradius 99.1436
lwrist 9.46761
lhand -23.809 -10.6388
lfingers 7.12502
lthumb 2.66183 19.3243
rfemur -30.3367 -3.5758 25.3942
rtibia 61.6256
rfoot -11.3567 -8.94357
rtoes -20.1114
lfemur -33.7591 -1.24555 -13.7133
ltibia 95.3227
lfoot -13.1064 -10.1976
ltoes 0.13498
185
root -18.9887 15.1022 38.8929 -8.87344 -30.476 -7.64627
lowerback 16.1771 -1.7289 2.15921
upperback 2.3968 -1.69189 4.00758
thorax -6.44648 -0.862571 3.41669
lowerneck -16.7812 -4.05542 -4.65258
upperneck 14.4623 -4.71153 1.81727
head 7.35316 -2.34814 0.821438
rclavicle 1.10307e-013 1.59028e-014
rhumerus -50.4447 4.42541 -82.527
rradius 90.2262
rwrist -9.37926
rhand -24.6708 10.5214
rfingers 7.12502
rthumb 1.82955 -19.4505
lclavicle 1.10307e-013 1.59028e-014
lhumerus -46.4889 -5.46017 98.1635
lradius 96.0201
lwrist 10.4155
lhand -24.4119 -10.8127
lfingers 7.12502
lthumb 2.07958 19.1569
rfemur -29.4713 -3.75574 25.929
rtibia 62.6579
rfoot -12.9354 -9.81523
rtoes -21.1774
lfemur -35.361 -1.35113 -13.7865
ltibia 94.0226
lfoot -13.7422 -9.88737
ltoes -0.99557
186
root -19.2013 15.0995 39.1521 -8.64005 -30.2443 -8.0374
lowerback 16.1225 -1.68998 2.32473
upperback 2.28676 -1.60016 4.12486
thorax -6.53967 -0.81928 3.43086
lowerneck -16.6323 -4.11945 -4.68625
upperneck 14.7601 -4.81367 1.86368
head 7.43104 -2.39728 0.830501
rclavicle 3.49364e-014 4.09496e-014
rhumerus -48.9593 4.6522 -82.3932
rradius 89.5658
rwrist -8.70451
rhand -24.6172 10.3343
rfingers 7.12502
rthumb 1.88129 -19.6371
lclavicle 3.49364e-014 4.09496e-014
lhumerus -46.4977 -4.81008 97.8428
lradius 93.0432
lwrist 10.8591
lhand -24.9683 -11.1137
lfingers 7.12502
lthumb 1.54222 18.8605
rfemur -28.5283 -3.84459 26.4868
rtibia 63.4548
rfoot -14.3869 -10.6444
rtoes -22.2599
lfemur -36.8212 -1.29952 -13.8842
ltibia 92.4012
lfoot -14.3286 -9.375
ltoes -2.03295
187
root -19.4076 15.1066 39.4124 -8.38239 -30.1423 -8.39372
lowerback 16.0416 -1.60806 2.55346
upperback 2.16346 -1.44227 4.22158
thorax -6.63731 -0.745516 3.37226
lowerneck -16.5406 -4.19336 -4.75099
upperneck 15.1029 -4.91913 1.90469
head 7.53464 -2.44996 0.840994
rclavicle -2.09097e-014 1.19271e-014
rhumerus -47.7287 4.69445 -82.3034
rradius 89.3853
rwrist -8.09683
rhand -24.4355 10.2217
rfingers 7.12502
rthumb 2.05674 -19.7482
lclavicle -2.09097e-014 1.19271e-014
lhumerus -46.657 -4.37698 97.561
lradius 90.3418
lwrist 10.6569
lhand -25.4429 -11.4667
lfingers 7.12502
lthumb 1.08383 18.5103
rfemur -27.4995 -3.86508 27.0258
rtibia 64.005
rfoot -15.7296 -11.4017
rtoes -23.2199
lfemur -38.1212 -1.13246 -14.0248
ltibia 90.4437
lfoot -14.8163 -8.72506
ltoes -2.92147
188
root -19.6086 15.1256 39.6734 -8.09749 -30.1381 -8.68702
lowerback 15.9147 -1.4881 2.80812
upperback 2.02807 -1.23298 4.29089
thorax -6.72488 -0.647903 3.25701
lowerneck -16.501 -4.2764 -4.84959
upperneck 15.4579 -5.02798 1.95249
head 7.65286 -2.50514 0.857637
rclavicle -4.08378e-014 -3.97569e-015
rhumerus -46.7639 4.60391 -82.2744
rradius 89.7035
rwrist -7.74042
rhand -24.1862 10.1877
rfingers 7.12502
rthumb 2.2975 -19.7797
lclavicle -4.08378e-014 -3.97569e-015
lhumerus -46.991 -4.17642 97.3246
lradius 88.0062
lwrist 9.80417
lhand -25.8154 -11.7985
lfingers 7.12502
lthumb 0.724047 18.18
rfemur -26.3989 -3.85487 27.5077
rtibia 64.3011
rfoot -16.9645 -12.0686
rtoes -24.0357
lfemur -39.2647 -0.900634 -14.2251
ltibia 88.1323
lfoot -15.1725 -8.00056
ltoes -3.54442
189
root -19.8051 15.1591 39.9353 -7.78609 -30.1933 -8.90537
lowerback 15.7354 -1.35896 3.04203
upperback 1.89561 -1.02063 4.32887
thorax -6.7792 -0.549077 3.11737
lowerneck -16.5726 -4.34302 -4.92265
upperneck 15.8177 -5.11221 1.98637
head 7.79049 -2.54732 0.866313
rclavicle -2.07109e-014 -2.8625e-014
rhumerus -45.9944 4.50163 -82.3472
rradius 90.4623
rwrist -7.7582
rhand -23.9105 10.1924
rfingers 7.12502
rthumb 2.56376 -19.7719
lclavicle -2.07109e-014 -2.8625e-014
lhumerus -47.4797 -4.14828 97.1008
lradius 86.103
lwrist 8.51129
lhand -26.0694 -12.0735
lfingers 7.12502
lthumb 0.47871 17.9057
rfemur -25.2293 -3.85246 27.9075
rtibia 64.3349
rfoot -18.0996 -12.6242
rtoes -24.6258
lfemur -40.2383 -0.666023 -14.484
ltibia 85.4513
lfoot -15.3668 -7.28328
ltoes -3.89046
190
root -19.998 15.2077 40.1978 -7.4478 -30.2695 -9.05356
lowerback 15.4883 -1.2318 3.25611
upperback 1.76566 -0.821424 4.33112
thorax -6.79153 -0.456796 2.95155
lowerneck -16.7064 -4.39927 -4.98236
upperneck 16.143 -5.1835 2.03146
head 7.9275 -2.58054 0.877096
rclavicle -4.3509e-014 -5.56597e-014
rhumerus -45.3813 4.44068 -82.5191
rradius 91.5741
rwrist -8.18508
rhand -23.6664 10.202
rfingers 7.12502
rthumb 2.79958 -19.7594
lclavicle -4.3509e-014 -5.56597e-014
lhumerus -48.1226 -4.28668 96.894
lradius 84.6591
lwrist 7.06412
lhand -26.1905 -12.27
lfingers 7.12502
lthumb 0.361747 17.7094
rfemur -23.9943 -3.88544 28.2179
rtibia 64.1134
rfoot -19.1313 -13.0708
rtoes -25.0507
lfemur -41.0351 -0.486137 -14.784
ltibia 82.3992
lfoot -15.3779 -6.64287
ltoes -3.98377
191
root -20.1882 15.2683 40.46 -7.05147 -30.349 -9.19855
lowerback 15.1787 -1.11012 3.49664
upperback 1.62665 -0.630451 4.31584
thorax -6.77737 -0.369599 2.75307
lowerneck -16.8438 -4.45853 -5.04507
upperneck 16.411 -5.26132 2.09986
head 8.0476 -2.61426 0.895595
rclavicle 1.41013e-014 2.94201e-014
rhumerus -44.8927 4.43859 -82.754
rradius 92.9248
rwrist -8.92572
rhand -23.4683 10.1894
rfingers 7.12502
rthumb 2.99085 -19.7694
lclavicle 1.41013e-014 2.94201e-014
lhumerus -48.9219 -4.58856 96.7328
lradius 83.6692
lwrist 5.80301
lhand -26.1901 -12.3908
lfingers 7.12502
lthumb 0.362125 17.5887
rfemur -22.721 -3.95561 28.5032
rtibia 63.6637
rfoot -20.044 -13.4158
rtoes -25.2839
lfemur -41.6732 -0.386708 -15.0388
ltibia 79.0068
lfoot -15.1898 -6.14395
ltoes -3.91226
